<?xml version="1.0" standalone="no"?>
<!DOCTYPE svg PUBLIC "-//W3C//DTD SVG 20010904//EN"
 "http://www.w3.org/TR/2001/REC-SVG-20010904/DTD/svg10.dtd">
<svg version="1.0" xmlns="http://www.w3.org/2000/svg"
 width="100.000000pt" height="100.000000pt" viewBox="0 0 100.000000 100.000000"
 preserveAspectRatio="xMidYMid meet">

<g transform="translate(0.000000,100.000000) scale(0.100000,-0.100000)"
fill="#000000" stroke="none">
<path d="M383 986 c-219 -53 -383 -261 -383 -486 0 -270 230 -500 500 -500
270 0 500 230 500 500 0 274 -233 503 -508 499 -31 0 -80 -6 -109 -13z m105
-200 c43 -23 250 -238 257 -269 16 -61 0 -87 -123 -209 -126 -125 -144 -138
-192 -138 -67 0 -120 53 -120 120 0 44 20 77 84 139 l56 55 -70 72 c-64 66
-70 76 -70 113 0 78 47 130 118 131 18 0 45 -6 60 -14z"/>
</g>
</svg>
